<svg xmlns="http://www.w3.org/2000/svg" width="40" height="41" fill="none"><rect width="40" height="40" y=".608" fill="#334E94" rx="20"/><g clip-path="url(#a)"><mask id="b" width="20" height="21" x="10" y="10" maskUnits="userSpaceOnUse" style="mask-type:luminance"><path fill="#fff" d="M29.524 10.608H10.477v20h19.047v-20z"/></mask><g mask="url(#b)"><path fill="#FEFEFE" d="M29.227 20.608A9.225 9.225 0 0 0 20 11.382a9.225 9.225 0 0 0-9.227 9.226c0 4.614 3.349 8.445 7.776 9.115v-6.436h-2.344V20.61h2.344V18.6c0-2.306 1.376-3.608 3.46-3.608 1.041 0 2.083.186 2.083.186v2.27H22.94c-1.154 0-1.526.706-1.526 1.45v1.712h2.567l-.409 2.678h-2.158v6.436c4.427-.67 7.813-4.501 7.813-9.114z"/></g></g><defs><clipPath id="a"><path fill="#fff" d="M10.477 10.608h19.048v20H10.477z"/></clipPath></defs></svg>