<svg width="256" height="256" viewBox="0 0 256 256" fill="none" xmlns="http://www.w3.org/2000/svg">
<path fill-rule="evenodd" clip-rule="evenodd" d="M145.767 15.1753C134.772 8.83062 121.228 8.82952 110.231 15.1724L39.1184 56.199C28.1133 62.5493 21.3333 74.2895 21.3333 86.9953V169.005C21.3333 181.711 28.1133 193.451 39.1184 199.801L110.231 240.828C121.228 247.171 134.772 247.169 145.767 240.825L216.876 199.8C227.884 193.451 234.667 181.709 234.667 169.001V86.9991C234.667 74.2913 227.884 62.5495 216.876 56.2L145.767 15.1753ZM124.504 70.841C126.802 69.7425 129.471 69.7425 131.769 70.841C133.756 71.7906 134.851 73.4394 135.403 74.3439C135.974 75.2791 136.561 76.4705 137.132 77.6316L146.215 96.0806C147.33 98.3457 147.887 99.4782 148.703 100.358C149.425 101.136 150.292 101.767 151.255 102.216C152.342 102.722 153.591 102.905 156.089 103.271L176.396 106.247C177.673 106.434 178.984 106.626 180.047 106.882C181.075 107.13 182.977 107.667 184.49 109.268C186.241 111.121 187.064 113.666 186.731 116.196C186.443 118.383 185.217 119.936 184.529 120.742C183.818 121.575 182.869 122.501 181.945 123.404L167.248 137.756L167.248 137.756C165.444 139.518 164.542 140.399 163.96 141.446C163.445 142.373 163.114 143.392 162.987 144.445C162.842 145.634 163.055 146.877 163.48 149.362L166.949 169.642C167.168 170.918 167.392 172.228 167.478 173.321C167.562 174.378 167.643 176.358 166.592 178.297C165.377 180.541 163.217 182.114 160.714 182.579C158.549 182.981 156.696 182.292 155.719 181.886C154.709 181.466 153.537 180.847 152.394 180.244L152.393 180.244L134.26 170.683L134.259 170.682C132.02 169.501 130.9 168.911 129.719 168.679C128.674 168.473 127.599 168.473 126.554 168.679C125.374 168.911 124.254 169.501 122.014 170.682L122.013 170.683L103.88 180.244C102.737 180.847 101.564 181.466 100.554 181.886C99.5769 182.292 97.724 182.981 95.5598 182.579C93.0565 182.114 90.8964 180.541 89.6812 178.297C88.6306 176.358 88.7113 174.378 88.7949 173.321C88.8812 172.228 89.1055 170.918 89.3241 169.642L92.7931 149.362C93.2183 146.877 93.4308 145.634 93.2867 144.445C93.1591 143.392 92.8285 142.373 92.3131 141.446C91.7311 140.399 90.8291 139.518 89.0252 137.756L74.3289 123.404C73.404 122.502 72.455 121.575 71.7442 120.742C71.0566 119.936 69.8308 118.383 69.5427 116.196C69.2095 113.666 70.0327 111.121 71.7833 109.268C73.2964 107.667 75.1979 107.13 76.2263 106.882C77.2892 106.626 78.5996 106.434 79.8767 106.248L79.8772 106.247L100.184 103.271C102.682 102.905 103.931 102.722 105.019 102.216C105.981 101.767 106.848 101.136 107.57 100.358C108.386 99.4782 108.944 98.3457 110.059 96.0807L110.059 96.0806L119.142 77.6312C119.713 76.4702 120.299 75.279 120.87 74.3439C121.422 73.4394 122.518 71.7906 124.504 70.841Z" fill="#444CE7"/>
</svg>
