<svg xmlns="http://www.w3.org/2000/svg" width="353" height="392" fill="none"><rect width="352" height="391" x=".5" y=".5" fill="#fff" rx="15.5"/><path fill="#0A0A0A" d="M118.513 20.454h2.614v10.228c-.005.937-.204 1.745-.597 2.422a3.985 3.985 0 0 1-1.648 1.555c-.7.36-1.517.54-2.45.54-.852 0-1.619-.152-2.301-.455a3.75 3.75 0 0 1-1.612-1.363c-.398-.602-.597-1.35-.597-2.245h2.621c.005.393.09.732.256 1.016.17.284.404.502.703.653.298.152.641.228 1.03.228.421 0 .778-.088 1.072-.263.294-.18.516-.445.668-.796.156-.35.236-.78.241-1.292V20.455zm8.498 14.766c-.691 0-1.314-.123-1.868-.37a3.05 3.05 0 0 1-1.307-1.107c-.317-.488-.476-1.09-.476-1.804 0-.616.114-1.125.341-1.527.228-.402.538-.724.931-.966a4.687 4.687 0 0 1 1.328-.547c.497-.128 1.011-.22 1.541-.277a60.33 60.33 0 0 0 1.555-.177c.398-.057.687-.142.867-.256.185-.119.277-.3.277-.547v-.043c0-.535-.159-.949-.476-1.242-.317-.294-.774-.44-1.371-.44-.629 0-1.129.136-1.498.411-.365.275-.611.6-.739.973l-2.4-.34c.189-.664.501-1.218.937-1.663a4.07 4.07 0 0 1 1.598-1.008 6.114 6.114 0 0 1 2.088-.341c.526 0 1.049.061 1.57.184.521.124.996.327 1.427.611.431.28.777.66 1.037 1.144.265.483.398 1.086.398 1.81V35h-2.472v-1.499h-.085a3.133 3.133 0 0 1-.66.853c-.28.26-.632.47-1.059.632-.421.156-.916.234-1.484.234zm.668-1.889c.516 0 .963-.102 1.342-.305.379-.209.67-.483.874-.824.208-.341.312-.713.312-1.115V29.8c-.08.066-.218.128-.412.185a5.792 5.792 0 0 1-.639.149c-.237.043-.471.08-.703.114l-.604.085a4.497 4.497 0 0 0-1.03.256 1.71 1.71 0 0 0-.717.497c-.175.208-.263.478-.263.81 0 .473.173.83.519 1.072.345.241.786.362 1.321.362zm10.248-4.723V35h-2.571V24.09h2.458v1.855h.127a3.116 3.116 0 0 1 1.201-1.456c.554-.36 1.238-.54 2.052-.54.753 0 1.409.16 1.968.483a3.25 3.25 0 0 1 1.306 1.399c.313.61.467 1.352.462 2.223V35h-2.571v-6.548c0-.73-.189-1.3-.568-1.712-.374-.412-.893-.618-1.556-.618-.449 0-.849.1-1.2.299a2.073 2.073 0 0 0-.817.845c-.194.369-.291.816-.291 1.342zm16.57 1.804V24.09h2.571V35h-2.493v-1.939h-.114a3.281 3.281 0 0 1-1.214 1.499c-.559.388-1.248.582-2.067.582-.715 0-1.347-.159-1.896-.476-.545-.322-.971-.788-1.279-1.399-.307-.616-.461-1.359-.461-2.23V24.09h2.571v6.548c0 .692.189 1.24.568 1.648.379.407.876.61 1.491.61.379 0 .746-.092 1.101-.276.355-.185.647-.46.874-.824.232-.37.348-.831.348-1.385zm8.354 4.808c-.691 0-1.314-.123-1.868-.37a3.05 3.05 0 0 1-1.307-1.107c-.317-.488-.476-1.09-.476-1.804 0-.616.114-1.125.341-1.527.227-.402.538-.724.931-.966a4.687 4.687 0 0 1 1.328-.547c.497-.128 1.011-.22 1.541-.277a60.33 60.33 0 0 0 1.555-.177c.398-.057.687-.142.867-.256.184-.119.277-.3.277-.547v-.043c0-.535-.159-.949-.476-1.242-.317-.294-.774-.44-1.371-.44-.63 0-1.129.136-1.498.411-.365.275-.611.6-.739.973l-2.401-.34c.19-.664.502-1.218.938-1.663a4.07 4.07 0 0 1 1.598-1.008 6.114 6.114 0 0 1 2.088-.341c.526 0 1.049.061 1.57.184.52.124.996.327 1.427.611.431.28.777.66 1.037 1.144.265.483.398 1.086.398 1.81V35h-2.472v-1.499h-.085a3.118 3.118 0 0 1-.661.853c-.279.26-.632.47-1.058.632-.421.156-.916.234-1.484.234zm.667-1.889c.517 0 .964-.102 1.343-.305.379-.209.67-.483.873-.824.209-.341.313-.713.313-1.115V29.8c-.081.066-.218.128-.412.185a5.847 5.847 0 0 1-.639.149c-.237.043-.471.08-.703.114l-.604.085a4.484 4.484 0 0 0-1.03.256 1.71 1.71 0 0 0-.717.497c-.175.208-.263.478-.263.81 0 .473.173.83.518 1.072.346.241.786.362 1.321.362zM171.196 35V24.09h2.493v1.82h.114c.198-.63.539-1.116 1.022-1.457a2.816 2.816 0 0 1 1.669-.518c.142 0 .301.007.476.021.18.01.329.026.448.05v2.365a2.715 2.715 0 0 0-.519-.1 4.779 4.779 0 0 0-.675-.05c-.468 0-.89.102-1.264.306-.369.199-.66.476-.873.831-.213.355-.32.765-.32 1.229V35h-2.571zm9.86 4.09a5.2 5.2 0 0 1-.973-.084 3.592 3.592 0 0 1-.703-.185l.596-2.003c.374.11.708.161 1.002.156a1.23 1.23 0 0 0 .774-.277c.227-.175.419-.468.575-.88l.22-.59-3.956-11.136h2.728l2.514 8.239h.113l2.522-8.24h2.734l-4.368 12.231a4.888 4.888 0 0 1-.809 1.484 3.303 3.303 0 0 1-1.236.952c-.483.223-1.061.334-1.733.334zM199.687 35v-1.903l5.05-4.95c.483-.488.885-.922 1.207-1.3.322-.38.564-.746.725-1.101a2.72 2.72 0 0 0 .241-1.137c0-.459-.104-.852-.312-1.179a2.081 2.081 0 0 0-.86-.767 2.77 2.77 0 0 0-1.243-.27c-.478 0-.897.1-1.257.299-.36.194-.639.47-.838.83-.194.36-.291.79-.291 1.286h-2.507c0-.923.211-1.726.632-2.407a4.26 4.26 0 0 1 1.74-1.584c.743-.374 1.596-.561 2.557-.561.975 0 1.832.182 2.571.547.739.364 1.311.864 1.719 1.498.412.635.618 1.359.618 2.173 0 .545-.105 1.08-.313 1.605-.208.526-.575 1.108-1.101 1.748-.521.639-1.252 1.413-2.194 2.322l-2.507 2.55v.1h6.335V35h-9.972zm17.798.277c-1.169 0-2.173-.296-3.011-.888-.833-.596-1.475-1.456-1.925-2.578-.445-1.127-.667-2.483-.667-4.07.004-1.586.229-2.935.674-4.048.45-1.117 1.092-1.97 1.925-2.557.838-.587 1.84-.88 3.004-.88 1.165 0 2.167.293 3.005.88.838.588 1.479 1.44 1.924 2.557.45 1.118.675 2.467.675 4.048 0 1.591-.225 2.95-.675 4.077-.445 1.122-1.086 1.98-1.924 2.571-.834.592-1.835.888-3.005.888zm0-2.223c.91 0 1.627-.448 2.152-1.342.531-.9.796-2.223.796-3.97 0-1.156-.121-2.127-.362-2.913-.242-.785-.583-1.377-1.023-1.775a2.238 2.238 0 0 0-1.563-.604c-.904 0-1.619.45-2.144 1.35-.526.895-.791 2.209-.796 3.941-.005 1.16.111 2.136.348 2.927.242.79.582 1.387 1.023 1.79.44.397.963.596 1.569.596zM225.449 35v-1.903l5.05-4.95c.483-.488.885-.922 1.207-1.3.322-.38.563-.746.724-1.101a2.72 2.72 0 0 0 .242-1.137c0-.459-.104-.852-.313-1.179a2.072 2.072 0 0 0-.859-.767 2.773 2.773 0 0 0-1.243-.27c-.478 0-.897.1-1.257.299-.36.194-.639.47-.838.83-.194.36-.291.79-.291 1.286h-2.507c0-.923.21-1.726.632-2.407a4.26 4.26 0 0 1 1.74-1.584c.743-.374 1.595-.561 2.557-.561.975 0 1.832.182 2.571.547.738.364 1.311.864 1.718 1.498.412.635.618 1.359.618 2.173 0 .545-.104 1.08-.312 1.605-.209.526-.575 1.108-1.101 1.748-.521.639-1.252 1.413-2.195 2.322l-2.507 2.55v.1h6.335V35h-9.971zm17.642.199c-1.023 0-1.932-.175-2.727-.526-.791-.35-1.416-.838-1.875-1.463-.46-.625-.703-1.347-.732-2.166h2.671c.023.393.153.736.39 1.03.237.289.552.514.945.675.393.16.833.241 1.321.241.521 0 .982-.09 1.385-.27.402-.184.717-.44.944-.767.228-.327.339-.703.334-1.13a1.96 1.96 0 0 0-.341-1.164c-.232-.336-.568-.599-1.008-.788-.436-.19-.961-.284-1.577-.284h-1.285v-2.032h1.285c.507 0 .949-.087 1.328-.262.384-.176.684-.422.902-.739.218-.322.324-.694.32-1.115.004-.412-.088-.77-.277-1.073a1.874 1.874 0 0 0-.789-.717c-.336-.17-.731-.256-1.186-.256a3.12 3.12 0 0 0-1.235.242 2.25 2.25 0 0 0-.917.689 1.745 1.745 0 0 0-.369 1.051h-2.536c.019-.814.254-1.53.704-2.145.454-.62 1.06-1.103 1.818-1.449.757-.35 1.607-.525 2.55-.525.97 0 1.813.182 2.528.547.72.36 1.276.845 1.669 1.456a3.66 3.66 0 0 1 .589 2.024c.005.819-.236 1.505-.724 2.06-.483.553-1.117.916-1.903 1.086v.114c1.022.142 1.806.52 2.35 1.136.55.61.822 1.37.817 2.28a3.65 3.65 0 0 1-.696 2.187c-.459.64-1.094 1.141-1.903 1.506-.805.365-1.728.547-2.77.547zM25.135 65.91h2.902l3.886 9.485h.154l3.886-9.486h2.902V79H36.59v-8.994h-.121l-3.618 8.956h-1.7l-3.618-8.975h-.122V79h-2.275V65.91zm49.64 1.987v-1.988h10.444v1.988h-4.046V79H78.82V67.897h-4.046zM122.985 79l-3.695-13.09h2.55l2.359 9.62h.122l2.518-9.62h2.32l2.525 9.626h.115l2.359-9.627h2.55L133.014 79h-2.34l-2.62-9.185h-.103L125.324 79h-2.339zm47.79-11.103v-1.988h10.444v1.988h-4.046V79h-2.352V67.897h-4.046zM220.518 79V65.91h8.386v1.987h-6.015v3.554h5.44v1.988h-5.44V79h-2.371z"/><path fill="#FF3B30" d="M275.561 69.508c-.06-.558-.311-.993-.754-1.304-.439-.311-1.01-.467-1.714-.467-.494 0-.918.075-1.272.224-.353.15-.624.352-.811.607a1.472 1.472 0 0 0-.288.876c0 .273.062.51.185.71.128.2.301.37.518.51.217.137.458.252.722.346.265.094.531.172.799.236l1.228.307c.494.115.969.27 1.425.467.46.196.872.443 1.234.741.366.299.656.659.869 1.08.213.422.32.917.32 1.484 0 .767-.196 1.442-.588 2.026-.392.58-.959 1.033-1.701 1.361-.737.324-1.63.486-2.678.486-1.018 0-1.903-.157-2.653-.473-.745-.315-1.329-.775-1.751-1.38-.418-.606-.643-1.343-.678-2.212h2.334c.034.456.174.835.421 1.138.248.302.569.528.966.677.4.15.848.224 1.342.224.516 0 .967-.077 1.355-.23.392-.158.699-.375.921-.652a1.58 1.58 0 0 0 .338-.985c-.004-.34-.104-.622-.3-.843-.196-.226-.471-.414-.825-.563a7.917 7.917 0 0 0-1.227-.409l-1.489-.383c-1.078-.278-1.931-.697-2.557-1.26-.622-.566-.933-1.319-.933-2.256 0-.771.208-1.447.626-2.026.422-.58.995-1.03 1.72-1.35.724-.323 1.544-.485 2.46-.485.929 0 1.743.162 2.442.486.703.32 1.255.765 1.656 1.336.4.567.607 1.219.62 1.956h-2.282zm48 0c-.06-.558-.311-.993-.754-1.304-.439-.311-1.01-.467-1.714-.467-.494 0-.918.075-1.272.224-.353.15-.624.352-.811.607a1.472 1.472 0 0 0-.288.876c0 .273.062.51.185.71.128.2.301.37.518.51.217.137.458.252.722.346.265.094.531.172.799.236l1.228.307c.494.115.969.27 1.425.467.46.196.872.443 1.234.741.366.299.656.659.869 1.08.213.422.32.917.32 1.484 0 .767-.196 1.442-.588 2.026-.392.58-.959 1.033-1.701 1.361-.737.324-1.63.486-2.678.486-1.018 0-1.903-.157-2.653-.473-.745-.315-1.329-.775-1.751-1.38-.418-.606-.643-1.343-.678-2.212h2.334c.034.456.174.835.421 1.138.248.302.569.528.966.677.4.15.848.224 1.342.224.516 0 .967-.077 1.355-.23.392-.158.699-.375.921-.652a1.58 1.58 0 0 0 .338-.985c-.004-.34-.104-.622-.3-.843-.196-.226-.471-.414-.825-.563a7.917 7.917 0 0 0-1.227-.409l-1.489-.383c-1.078-.278-1.931-.697-2.557-1.26-.622-.566-.933-1.319-.933-2.256 0-.771.208-1.447.626-2.026.422-.58.995-1.03 1.72-1.35.724-.323 1.544-.485 2.46-.485.929 0 1.743.162 2.442.486.703.32 1.255.765 1.656 1.336.4.567.607 1.219.62 1.956h-2.282z"/><path stroke="#F5F5F5" d="M8 96h337"/><path fill="#FF3B30" d="M322.774 113.909V127h-1.585v-11.429h-.077l-3.196 2.122v-1.611l3.273-2.173h1.585z"/><path fill="#0A0A0A" d="M28.406 175v-1.151l4.32-4.73a30.15 30.15 0 0 0 1.254-1.444c.328-.414.57-.801.729-1.164.161-.366.242-.75.242-1.15 0-.46-.11-.859-.332-1.196a2.158 2.158 0 0 0-.895-.779 2.89 2.89 0 0 0-1.278-.275c-.503 0-.942.104-1.317.313-.37.205-.659.492-.863.863-.2.371-.3.805-.3 1.304h-1.509c0-.767.177-1.44.53-2.02a3.684 3.684 0 0 1 1.445-1.355c.614-.324 1.302-.486 2.065-.486.767 0 1.447.162 2.039.486a3.659 3.659 0 0 1 1.393 1.31c.337.55.505 1.162.505 1.835 0 .481-.087.952-.262 1.412-.17.456-.468.966-.895 1.528-.422.558-1.008 1.24-1.758 2.046l-2.94 3.144v.103h6.085V175h-8.258zm52.142.179c-.844 0-1.596-.145-2.257-.435-.656-.289-1.178-.692-1.566-1.208a3.249 3.249 0 0 1-.626-1.809h1.61c.035.422.18.786.435 1.093.256.303.59.537 1.004.703.413.167.871.25 1.374.25.563 0 1.061-.098 1.496-.294a2.458 2.458 0 0 0 1.023-.818c.247-.35.37-.755.37-1.215a2.28 2.28 0 0 0-.357-1.272c-.239-.371-.588-.661-1.049-.869-.46-.209-1.022-.314-1.687-.314h-1.049v-1.406h1.049c.52 0 .976-.094 1.368-.281a2.2 2.2 0 0 0 .927-.793c.225-.341.338-.741.338-1.201 0-.444-.098-.829-.294-1.157a2.01 2.01 0 0 0-.83-.767c-.354-.184-.772-.275-1.254-.275-.451 0-.877.083-1.278.249a2.39 2.39 0 0 0-.972.71 1.844 1.844 0 0 0-.409 1.112H76.38a3.128 3.128 0 0 1 .62-1.803c.388-.52.895-.924 1.522-1.214a4.912 4.912 0 0 1 2.077-.435c.81 0 1.504.164 2.084.492a3.46 3.46 0 0 1 1.336 1.285c.31.533.466 1.108.466 1.726 0 .737-.194 1.366-.581 1.886-.384.519-.906.88-1.566 1.08v.102c.826.136 1.472.488 1.937 1.055.464.562.696 1.259.696 2.09 0 .712-.194 1.351-.581 1.918-.384.562-.908 1.005-1.573 1.329-.665.324-1.421.486-2.27.486zm43.226-2.864v-1.304l5.753-9.102h.946v2.02h-.639l-4.347 6.878v.102h7.747v1.406h-9.46zm6.162 2.685v-13.091h1.508V175h-1.508zm46.534.179c-.75 0-1.425-.149-2.026-.447a3.766 3.766 0 0 1-1.444-1.228 3.336 3.336 0 0 1-.595-1.777h1.534a2.1 2.1 0 0 0 .806 1.47c.481.384 1.056.576 1.725.576.537 0 1.015-.126 1.432-.377.422-.252.752-.597.991-1.036.243-.443.364-.944.364-1.502 0-.571-.125-1.08-.377-1.528a2.774 2.774 0 0 0-1.022-1.067 2.9 2.9 0 0 0-1.49-.397c-.4-.004-.812.058-1.234.186-.421.123-.769.283-1.041.479l-1.483-.179.792-6.443h6.801v1.406h-5.471l-.46 3.861h.076c.269-.213.605-.39 1.01-.53a3.822 3.822 0 0 1 1.266-.211c.801 0 1.515.191 2.141.575a4.011 4.011 0 0 1 1.483 1.56c.362.66.543 1.414.543 2.262 0 .836-.187 1.581-.562 2.238a4.11 4.11 0 0 1-1.534 1.546c-.652.375-1.394.563-2.225.563zm48.115 0a4.913 4.913 0 0 1-1.61-.307c-.537-.196-1.027-.526-1.47-.991-.444-.468-.799-1.101-1.068-1.898-.268-.801-.403-1.807-.403-3.017 0-1.159.109-2.186.326-3.081.218-.899.533-1.656.946-2.269.414-.618.912-1.087 1.496-1.406.588-.32 1.251-.48 1.988-.48.733 0 1.385.147 1.956.441.575.29 1.044.695 1.406 1.215.362.52.597 1.118.703 1.796h-1.559a2.892 2.892 0 0 0-.844-1.464c-.418-.388-.972-.582-1.662-.582-1.014 0-1.813.441-2.397 1.324-.58.882-.871 2.12-.876 3.713h.103a3.847 3.847 0 0 1 1.949-1.527 3.806 3.806 0 0 1 1.272-.211c.75 0 1.436.187 2.058.562a4.147 4.147 0 0 1 1.496 1.541c.375.652.563 1.4.563 2.243 0 .81-.181 1.551-.544 2.225a4.141 4.141 0 0 1-1.527 1.598c-.652.392-1.419.584-2.302.575zm0-1.406c.537 0 1.019-.135 1.445-.403.43-.268.769-.629 1.016-1.08.252-.452.378-.955.378-1.509 0-.541-.122-1.033-.365-1.476a2.77 2.77 0 0 0-.991-1.068 2.618 2.618 0 0 0-1.431-.396 2.66 2.66 0 0 0-1.132.243 2.91 2.91 0 0 0-.92.652c-.26.277-.465.594-.614.952a2.856 2.856 0 0 0-.224 1.119 3.029 3.029 0 0 0 1.375 2.55c.43.277.918.416 1.463.416z"/><path fill="#FF3B30" d="m269.123 175 5.855-11.582v-.103h-6.75v-1.406h8.386v1.483L270.785 175h-1.662zm51.379.179c-.877 0-1.653-.156-2.326-.467-.669-.315-1.191-.748-1.566-1.297a3.255 3.255 0 0 1-.556-1.892 3.461 3.461 0 0 1 .326-1.534c.221-.473.524-.868.907-1.183a2.788 2.788 0 0 1 1.298-.607v-.077a2.524 2.524 0 0 1-1.496-1.055 3.193 3.193 0 0 1-.55-1.86 3.162 3.162 0 0 1 .505-1.783 3.56 3.56 0 0 1 1.407-1.24c.6-.303 1.284-.454 2.051-.454.759 0 1.436.151 2.033.454a3.558 3.558 0 0 1 1.406 1.24c.345.524.52 1.119.524 1.783a3.237 3.237 0 0 1-.568 1.86 2.522 2.522 0 0 1-1.477 1.055v.077c.473.085.899.288 1.278.607.38.315.682.71.908 1.183.226.468.341.98.345 1.534a3.307 3.307 0 0 1-.575 1.892c-.375.549-.897.982-1.566 1.297-.665.311-1.434.467-2.308.467zm0-1.406c.593 0 1.104-.096 1.534-.288.431-.192.763-.462.998-.812.234-.349.353-.758.358-1.227a2.363 2.363 0 0 0-.384-1.31 2.588 2.588 0 0 0-1.029-.895c-.43-.218-.923-.326-1.477-.326-.558 0-1.056.108-1.495.326a2.588 2.588 0 0 0-1.029.895 2.303 2.303 0 0 0-.365 1.31c-.004.469.109.878.339 1.227.234.35.569.62 1.004.812.434.192.95.288 1.546.288zm0-6.213c.469 0 .885-.094 1.247-.282.366-.187.654-.449.863-.786.209-.336.315-.731.319-1.182-.004-.444-.108-.829-.313-1.157a2.026 2.026 0 0 0-.85-.767c-.362-.184-.784-.275-1.266-.275-.49 0-.918.091-1.284.275-.367.179-.65.434-.851.767-.2.328-.298.713-.294 1.157-.004.451.096.846.301 1.182.209.337.496.599.863.786.366.188.788.282 1.265.282z"/><path fill="#0A0A0A" d="M32.407 209.73a4.69 4.69 0 0 1 1.61.307c.537.2 1.027.533 1.47.997.444.46.8 1.089 1.068 1.886.268.797.403 1.796.403 2.998 0 1.163-.111 2.196-.333 3.1-.217.899-.532 1.657-.946 2.275-.409.618-.907 1.087-1.495 1.407-.584.319-1.245.479-1.982.479-.733 0-1.387-.145-1.962-.435a3.85 3.85 0 0 1-1.407-1.221 4.248 4.248 0 0 1-.696-1.821h1.56c.14.601.419 1.097.837 1.489.422.388.978.582 1.668.582 1.01 0 1.807-.441 2.39-1.323.589-.883.883-2.129.883-3.74h-.103a4.014 4.014 0 0 1-.85.927 3.752 3.752 0 0 1-2.371.812 3.99 3.99 0 0 1-2.065-.556 4.22 4.22 0 0 1-1.495-1.541c-.371-.656-.557-1.406-.557-2.25 0-.801.18-1.534.537-2.199a4.157 4.157 0 0 1 1.522-1.598c.656-.396 1.427-.588 2.314-.575zm0 1.406a2.69 2.69 0 0 0-1.451.403 2.893 2.893 0 0 0-1.017 1.074c-.247.447-.37.944-.37 1.489 0 .546.119 1.042.357 1.49.243.443.574.796.991 1.061.422.26.901.39 1.438.39.405 0 .782-.079 1.132-.237a2.93 2.93 0 0 0 .914-.658c.264-.282.47-.599.62-.953a2.93 2.93 0 0 0-.147-2.557 2.944 2.944 0 0 0-1.01-1.086 2.615 2.615 0 0 0-1.457-.416zm44.242-1.227V223h-1.585v-11.429h-.077l-3.196 2.122v-1.611l3.273-2.173h1.585zm8.035 13.27c-.963 0-1.784-.262-2.461-.786-.678-.529-1.196-1.294-1.554-2.295-.358-1.006-.537-2.22-.537-3.643 0-1.415.18-2.623.537-3.625.363-1.005.883-1.772 1.56-2.301.682-.533 1.5-.799 2.455-.799.954 0 1.77.266 2.448.799.682.529 1.201 1.296 1.56 2.301.362 1.002.543 2.21.543 3.625 0 1.423-.18 2.637-.537 3.643-.358 1.001-.876 1.766-1.553 2.295-.678.524-1.498.786-2.461.786zm0-1.406c.954 0 1.696-.461 2.224-1.381.528-.92.793-2.233.793-3.937 0-1.134-.122-2.099-.365-2.896-.238-.797-.584-1.404-1.035-1.822a2.288 2.288 0 0 0-1.617-.626c-.946 0-1.686.466-2.218 1.4-.533.929-.8 2.243-.8 3.944 0 1.133.12 2.096.359 2.889.238.792.581 1.395 1.029 1.809.451.413.995.62 1.63.62zm41.406-11.864V223h-1.585v-11.429h-.077l-3.196 2.122v-1.611l3.273-2.173h1.585zm8.367 0V223h-1.585v-11.429h-.077l-3.196 2.122v-1.611l3.273-2.173h1.585zm38.368 0V223h-1.586v-11.429h-.076l-3.196 2.122v-1.611l3.272-2.173h1.586zM176.589 223v-1.151l4.322-4.73c.507-.554.924-1.035 1.252-1.444.328-.414.571-.801.729-1.164.162-.366.243-.75.243-1.15 0-.46-.111-.859-.332-1.196a2.164 2.164 0 0 0-.895-.779 2.895 2.895 0 0 0-1.279-.275c-.503 0-.941.104-1.317.313-.37.205-.658.492-.862.863-.201.371-.301.805-.301 1.304h-1.508c0-.767.176-1.44.53-2.02a3.683 3.683 0 0 1 1.445-1.355c.613-.324 1.302-.486 2.064-.486.767 0 1.447.162 2.039.486a3.658 3.658 0 0 1 1.394 1.31c.337.55.505 1.162.505 1.835 0 .481-.087.952-.262 1.412-.171.456-.469.966-.895 1.528-.422.558-1.008 1.24-1.758 2.046l-2.94 3.144v.103h6.085V223h-8.259zm43.954-13.091V223h-1.585v-11.429h-.077l-3.196 2.122v-1.611l3.273-2.173h1.585zm8.189 13.27c-.844 0-1.596-.145-2.257-.435-.656-.289-1.178-.692-1.566-1.208a3.251 3.251 0 0 1-.626-1.809h1.61c.035.422.179.786.435 1.093.256.303.59.537 1.004.703.413.167.871.25 1.374.25.562 0 1.061-.098 1.496-.294a2.46 2.46 0 0 0 1.022-.818c.248-.35.371-.755.371-1.215 0-.482-.119-.906-.358-1.272-.238-.371-.588-.661-1.048-.869-.46-.209-1.023-.314-1.688-.314h-1.048v-1.406h1.048c.52 0 .976-.094 1.368-.281.397-.188.706-.452.927-.793.226-.341.339-.741.339-1.201 0-.444-.098-.829-.294-1.157a2.01 2.01 0 0 0-.831-.767c-.354-.184-.771-.275-1.253-.275a3.3 3.3 0 0 0-1.278.249c-.397.162-.72.399-.972.71a1.845 1.845 0 0 0-.409 1.112h-1.534a3.114 3.114 0 0 1 .62-1.803c.388-.52.895-.924 1.521-1.214a4.914 4.914 0 0 1 2.078-.435c.809 0 1.504.164 2.083.492a3.46 3.46 0 0 1 1.336 1.285c.311.533.467 1.108.467 1.726 0 .737-.194 1.366-.582 1.886-.383.519-.905.88-1.566 1.08v.102c.827.136 1.473.488 1.937 1.055.465.562.697 1.259.697 2.09 0 .712-.194 1.351-.582 1.918-.383.562-.908 1.005-1.572 1.329-.665.324-1.421.486-2.269.486z"/><path fill="#FF3B30" d="M268.499 209.909V223h-1.585v-11.429h-.077l-3.196 2.122v-1.611l3.273-2.173h1.585zm3.458 10.406v-1.304l5.753-9.102h.946v2.02h-.639l-4.346 6.878v.102h7.747v1.406h-9.461zm6.162 2.685v-13.091h1.509V223h-1.509zm38.679-13.091V223h-1.585v-11.429h-.077l-3.196 2.122v-1.611l3.273-2.173h1.585zm7.856 13.27c-.75 0-1.425-.149-2.026-.447a3.769 3.769 0 0 1-1.445-1.228 3.344 3.344 0 0 1-.594-1.777h1.534c.059.593.328 1.083.805 1.47.482.384 1.057.576 1.726.576.537 0 1.014-.126 1.432-.377.422-.252.752-.597.991-1.036.243-.443.364-.944.364-1.502 0-.571-.126-1.08-.377-1.528a2.769 2.769 0 0 0-1.023-1.067 2.897 2.897 0 0 0-1.489-.397 4.096 4.096 0 0 0-1.234.186c-.422.123-.769.283-1.042.479l-1.483-.179.793-6.443h6.801v1.406h-5.472l-.46 3.861h.077c.268-.213.605-.39 1.01-.53a3.82 3.82 0 0 1 1.265-.211c.802 0 1.515.191 2.142.575.63.379 1.125.899 1.483 1.56.362.66.543 1.414.543 2.262 0 .836-.187 1.581-.562 2.238a4.112 4.112 0 0 1-1.535 1.546c-.652.375-1.393.563-2.224.563z"/><path fill="#0A0A0A" d="M28.658 257.909V271h-1.586v-11.429h-.076l-3.196 2.122v-1.611l3.272-2.173h1.586zm8.111 13.27a4.913 4.913 0 0 1-1.61-.307c-.538-.196-1.028-.526-1.47-.991-.444-.468-.8-1.101-1.068-1.898-.269-.801-.403-1.807-.403-3.017 0-1.159.109-2.186.326-3.081.217-.899.533-1.656.946-2.269.413-.618.912-1.087 1.496-1.406.588-.32 1.25-.48 1.988-.48.733 0 1.385.147 1.956.441.575.29 1.044.695 1.406 1.215.362.52.596 1.118.703 1.796h-1.56a2.894 2.894 0 0 0-.843-1.464c-.418-.388-.972-.582-1.662-.582-1.015 0-1.814.441-2.397 1.324-.58.882-.872 2.12-.876 3.713h.102a3.84 3.84 0 0 1 1.95-1.527c.4-.141.824-.211 1.272-.211.75 0 1.436.187 2.058.562.622.371 1.12.884 1.496 1.541.375.652.562 1.4.562 2.243 0 .81-.18 1.551-.543 2.225a4.142 4.142 0 0 1-1.528 1.598c-.652.392-1.419.584-2.3.575zm0-1.406c.537 0 1.019-.135 1.445-.403a2.88 2.88 0 0 0 1.016-1.08c.251-.452.377-.955.377-1.509 0-.541-.121-1.033-.364-1.476a2.775 2.775 0 0 0-.991-1.068 2.622 2.622 0 0 0-1.432-.396c-.405 0-.782.081-1.131.243a2.91 2.91 0 0 0-.92.652c-.26.277-.465.594-.614.952-.15.354-.224.727-.224 1.119 0 .52.122 1.005.364 1.457.247.452.584.816 1.01 1.093.43.277.919.416 1.464.416zm40.363-11.864V271h-1.585v-11.429h-.077l-3.196 2.122v-1.611l3.273-2.173h1.585zM81.306 271l5.855-11.582v-.103h-6.75v-1.406h8.387v1.483L82.968 271h-1.662zm43.422-13.091V271h-1.585v-11.429h-.077l-3.196 2.122v-1.611l3.273-2.173h1.585zm7.958 13.27c-.878 0-1.653-.156-2.327-.467-.669-.315-1.191-.748-1.566-1.297a3.262 3.262 0 0 1-.556-1.892 3.489 3.489 0 0 1 .326-1.534 3.34 3.34 0 0 1 .908-1.183c.388-.319.82-.522 1.297-.607v-.077a2.522 2.522 0 0 1-1.495-1.055 3.193 3.193 0 0 1-.55-1.86 3.162 3.162 0 0 1 .505-1.783c.341-.524.81-.937 1.406-1.24.601-.303 1.285-.454 2.052-.454.759 0 1.436.151 2.033.454a3.565 3.565 0 0 1 1.406 1.24c.345.524.52 1.119.524 1.783a3.238 3.238 0 0 1-.569 1.86 2.523 2.523 0 0 1-1.476 1.055v.077c.473.085.899.288 1.278.607.379.315.682.71.908 1.183.226.468.341.98.345 1.534a3.307 3.307 0 0 1-.575 1.892c-.375.549-.897.982-1.566 1.297-.665.311-1.434.467-2.308.467zm0-1.406c.592 0 1.104-.096 1.534-.288.43-.192.763-.462.997-.812.235-.349.354-.758.358-1.227a2.355 2.355 0 0 0-.383-1.31 2.602 2.602 0 0 0-1.029-.895c-.431-.218-.923-.326-1.477-.326-.558 0-1.057.108-1.496.326a2.602 2.602 0 0 0-1.029.895 2.31 2.31 0 0 0-.364 1.31c-.004.469.108.878.339 1.227.234.35.568.62 1.003.812.435.192.95.288 1.547.288zm0-6.213c.469 0 .884-.094 1.246-.282.367-.187.655-.449.863-.786.209-.336.316-.731.32-1.182-.004-.444-.109-.829-.313-1.157a2.031 2.031 0 0 0-.85-.767c-.363-.184-.784-.275-1.266-.275-.49 0-.918.091-1.285.275a1.98 1.98 0 0 0-.85.767c-.2.328-.298.713-.294 1.157-.004.451.096.846.3 1.182.209.337.497.599.863.786.367.188.789.282 1.266.282zm39.972-5.651V271h-1.586v-11.429h-.076l-3.196 2.122v-1.611l3.272-2.173h1.586zm7.932-.179a4.691 4.691 0 0 1 1.611.307c.537.2 1.027.533 1.47.997.443.46.799 1.089 1.068 1.886.268.797.402 1.796.402 2.998 0 1.163-.111 2.196-.332 3.1-.217.899-.533 1.657-.946 2.275-.409.618-.908 1.087-1.496 1.407-.584.319-1.244.479-1.981.479-.733 0-1.388-.145-1.963-.435a3.846 3.846 0 0 1-1.406-1.221 4.248 4.248 0 0 1-.697-1.821h1.56c.141.601.42 1.097.837 1.489.422.388.978.582 1.669.582 1.01 0 1.806-.441 2.39-1.323.588-.883.882-2.129.882-3.74h-.102a4.024 4.024 0 0 1-.85.927 3.758 3.758 0 0 1-2.372.812c-.75 0-1.438-.186-2.064-.556a4.223 4.223 0 0 1-1.496-1.541c-.371-.656-.556-1.406-.556-2.25 0-.801.179-1.534.537-2.199a4.155 4.155 0 0 1 1.521-1.598c.656-.396 1.428-.588 2.314-.575zm0 1.406a2.69 2.69 0 0 0-1.451.403 2.89 2.89 0 0 0-1.016 1.074 3.029 3.029 0 0 0-.371 1.489c0 .546.119 1.042.358 1.49.243.443.573.796.991 1.061.422.26.901.39 1.438.39a2.71 2.71 0 0 0 1.131-.237c.35-.162.654-.381.914-.658.265-.282.471-.599.62-.953.15-.358.224-.731.224-1.118 0-.512-.123-.991-.371-1.439a2.932 2.932 0 0 0-1.01-1.086 2.612 2.612 0 0 0-1.457-.416zM214.781 271v-1.151l4.321-4.73c.507-.554.925-1.035 1.253-1.444.328-.414.571-.801.728-1.164.162-.366.243-.75.243-1.15 0-.46-.11-.859-.332-1.196a2.157 2.157 0 0 0-.895-.779 2.888 2.888 0 0 0-1.278-.275c-.503 0-.942.104-1.317.313a2.159 2.159 0 0 0-.863.863c-.2.371-.3.805-.3 1.304h-1.509c0-.767.177-1.44.531-2.02a3.68 3.68 0 0 1 1.444-1.355c.614-.324 1.302-.486 2.065-.486.767 0 1.447.162 2.039.486a3.655 3.655 0 0 1 1.393 1.31c.337.55.505 1.162.505 1.835 0 .481-.087.952-.262 1.412-.17.456-.469.966-.895 1.528-.422.558-1.007 1.24-1.757 2.046l-2.941 3.144v.103h6.085V271h-8.258zm15.168.179c-.963 0-1.783-.262-2.461-.786-.677-.529-1.195-1.294-1.553-2.295-.358-1.006-.537-2.22-.537-3.643 0-1.415.179-2.623.537-3.625.362-1.005.882-1.772 1.56-2.301.681-.533 1.5-.799 2.454-.799.955 0 1.771.266 2.448.799.682.529 1.202 1.296 1.56 2.301.362 1.002.543 2.21.543 3.625 0 1.423-.179 2.637-.537 3.643-.358 1.001-.875 1.766-1.553 2.295-.677.524-1.498.786-2.461.786zm0-1.406c.955 0 1.696-.461 2.225-1.381.528-.92.792-2.233.792-3.937 0-1.134-.121-2.099-.364-2.896-.239-.797-.584-1.404-1.036-1.822a2.286 2.286 0 0 0-1.617-.626c-.946 0-1.685.466-2.218 1.4-.532.929-.799 2.243-.799 3.944 0 1.133.119 2.096.358 2.889.239.792.582 1.395 1.029 1.809.452.413.995.62 1.63.62z"/><path fill="#FF3B30" d="M264.222 271v-1.151l4.321-4.73c.507-.554.925-1.035 1.253-1.444.328-.414.571-.801.729-1.164.162-.366.243-.75.243-1.15 0-.46-.111-.859-.333-1.196a2.151 2.151 0 0 0-.895-.779 2.888 2.888 0 0 0-1.278-.275c-.503 0-.942.104-1.317.313-.37.205-.658.492-.863.863-.2.371-.3.805-.3 1.304h-1.509c0-.767.177-1.44.531-2.02a3.683 3.683 0 0 1 1.445-1.355c.613-.324 1.301-.486 2.064-.486.767 0 1.447.162 2.039.486a3.658 3.658 0 0 1 1.394 1.31c.336.55.505 1.162.505 1.835 0 .481-.088.952-.262 1.412-.171.456-.469.966-.895 1.528-.422.558-1.008 1.24-1.758 2.046l-2.94 3.144v.103h6.085V271h-8.259zm15.501-13.091V271h-1.585v-11.429h-.077l-3.196 2.122v-1.611l3.273-2.173h1.585zM310.957 271v-1.151l4.321-4.73a30.68 30.68 0 0 0 1.253-1.444c.328-.414.571-.801.728-1.164.162-.366.243-.75.243-1.15 0-.46-.111-.859-.332-1.196a2.164 2.164 0 0 0-.895-.779 2.892 2.892 0 0 0-1.279-.275c-.502 0-.941.104-1.316.313a2.153 2.153 0 0 0-.863.863c-.201.371-.301.805-.301 1.304h-1.508c0-.767.177-1.44.53-2.02a3.69 3.69 0 0 1 1.445-1.355c.614-.324 1.302-.486 2.065-.486.767 0 1.446.162 2.039.486a3.663 3.663 0 0 1 1.393 1.31c.337.55.505 1.162.505 1.835 0 .481-.087.952-.262 1.412-.17.456-.469.966-.895 1.528-.422.558-1.008 1.24-1.758 2.046l-2.94 3.144v.103h6.085V271h-8.258zm10.898 0v-1.151l4.321-4.73c.507-.554.925-1.035 1.253-1.444.328-.414.571-.801.729-1.164.162-.366.243-.75.243-1.15 0-.46-.111-.859-.333-1.196a2.151 2.151 0 0 0-.895-.779 2.888 2.888 0 0 0-1.278-.275c-.503 0-.942.104-1.317.313a2.159 2.159 0 0 0-.863.863c-.2.371-.3.805-.3 1.304h-1.509c0-.767.177-1.44.531-2.02a3.68 3.68 0 0 1 1.444-1.355c.614-.324 1.302-.486 2.065-.486.767 0 1.447.162 2.039.486a3.665 3.665 0 0 1 1.394 1.31c.336.55.505 1.162.505 1.835 0 .481-.088.952-.263 1.412-.17.456-.468.966-.894 1.528-.422.558-1.008 1.24-1.758 2.046l-2.941 3.144v.103h6.086V271h-8.259z"/><path fill="#0A0A0A" d="M22.175 319v-1.151l4.321-4.73c.508-.554.925-1.035 1.253-1.444.328-.414.571-.801.729-1.164.162-.366.243-.75.243-1.15 0-.46-.11-.859-.332-1.196a2.157 2.157 0 0 0-.895-.779 2.89 2.89 0 0 0-1.279-.275c-.503 0-.942.104-1.317.313-.37.205-.658.492-.863.863-.2.371-.3.805-.3 1.304h-1.508c0-.767.176-1.44.53-2.02a3.684 3.684 0 0 1 1.445-1.355c.613-.324 1.302-.486 2.064-.486.767 0 1.447.162 2.04.486a3.66 3.66 0 0 1 1.393 1.31c.336.55.505 1.162.505 1.835 0 .481-.088.952-.262 1.412-.17.456-.469.966-.895 1.528-.422.558-1.008 1.24-1.758 2.046l-2.94 3.144v.103h6.085V319h-8.259zm15.322.179c-.844 0-1.596-.145-2.256-.435-.657-.289-1.178-.692-1.566-1.208a3.249 3.249 0 0 1-.627-1.809h1.611c.034.422.18.786.435 1.093a2.5 2.5 0 0 0 1.003.703c.414.167.872.25 1.375.25.562 0 1.06-.098 1.495-.294a2.459 2.459 0 0 0 1.023-.818c.247-.35.37-.755.37-1.215 0-.482-.118-.906-.357-1.272-.239-.371-.588-.661-1.048-.869-.46-.209-1.023-.314-1.688-.314h-1.048v-1.406h1.048c.52 0 .976-.094 1.368-.281a2.2 2.2 0 0 0 .927-.793c.226-.341.339-.741.339-1.201 0-.444-.098-.829-.295-1.157a2.01 2.01 0 0 0-.83-.767c-.354-.184-.772-.275-1.253-.275a3.31 3.31 0 0 0-1.279.249 2.38 2.38 0 0 0-.971.71 1.844 1.844 0 0 0-.41 1.112H33.33a3.114 3.114 0 0 1 .62-1.803c.387-.52.894-.924 1.52-1.214a4.913 4.913 0 0 1 2.078-.435c.81 0 1.505.164 2.084.492a3.46 3.46 0 0 1 1.336 1.285c.311.533.467 1.108.467 1.726 0 .737-.194 1.366-.582 1.886-.384.519-.906.88-1.566 1.08v.102c.827.136 1.472.488 1.937 1.055.464.562.697 1.259.697 2.09 0 .712-.194 1.351-.582 1.918-.384.562-.908 1.005-1.573 1.329-.664.324-1.42.486-2.269.486zM70.272 319v-1.151l4.321-4.73a30.15 30.15 0 0 0 1.253-1.444c.328-.414.571-.801.729-1.164.162-.366.243-.75.243-1.15 0-.46-.111-.859-.333-1.196a2.158 2.158 0 0 0-.895-.779 2.89 2.89 0 0 0-1.278-.275c-.503 0-.942.104-1.317.313-.37.205-.658.492-.863.863-.2.371-.3.805-.3 1.304h-1.509c0-.767.177-1.44.53-2.02a3.684 3.684 0 0 1 1.445-1.355c.614-.324 1.302-.486 2.065-.486.767 0 1.447.162 2.04.486a3.659 3.659 0 0 1 1.392 1.31c.337.55.505 1.162.505 1.835 0 .481-.087.952-.262 1.412-.17.456-.468.966-.894 1.528-.422.558-1.008 1.24-1.758 2.046l-2.94 3.144v.103h6.085V319h-8.259zm10.31-2.685v-1.304l5.753-9.102h.946v2.02h-.639l-4.346 6.878v.102h7.747v1.406h-9.46zM86.745 319v-13.091h1.509V319h-1.509zm31.685 0v-1.151l4.321-4.73c.507-.554.925-1.035 1.253-1.444.328-.414.571-.801.729-1.164.162-.366.243-.75.243-1.15 0-.46-.111-.859-.333-1.196a2.151 2.151 0 0 0-.895-.779 2.888 2.888 0 0 0-1.278-.275c-.503 0-.942.104-1.317.313-.37.205-.658.492-.863.863-.2.371-.3.805-.3 1.304h-1.509c0-.767.177-1.44.531-2.02a3.683 3.683 0 0 1 1.445-1.355c.613-.324 1.301-.486 2.064-.486.767 0 1.447.162 2.039.486a3.658 3.658 0 0 1 1.394 1.31c.336.55.505 1.162.505 1.835 0 .481-.088.952-.262 1.412-.171.456-.469.966-.895 1.528-.422.558-1.008 1.24-1.758 2.046l-2.94 3.144v.103h6.085V319h-8.259zm14.99.179c-.75 0-1.426-.149-2.027-.447a3.773 3.773 0 0 1-1.444-1.228 3.345 3.345 0 0 1-.595-1.777h1.534c.06.593.329 1.083.806 1.47.481.384 1.057.576 1.726.576a2.72 2.72 0 0 0 1.431-.377c.422-.252.753-.597.991-1.036.243-.443.365-.944.365-1.502 0-.571-.126-1.08-.378-1.528a2.774 2.774 0 0 0-1.022-1.067 2.898 2.898 0 0 0-1.49-.397c-.4-.004-.811.058-1.233.186-.422.123-.769.283-1.042.479l-1.483-.179.792-6.443h6.802v1.406h-5.472l-.46 3.861h.076c.269-.213.606-.39 1.01-.53a3.822 3.822 0 0 1 1.266-.211c.801 0 1.515.191 2.141.575a4.011 4.011 0 0 1 1.483 1.56c.363.66.544 1.414.544 2.262 0 .836-.188 1.581-.563 2.238a4.11 4.11 0 0 1-1.534 1.546c-.652.375-1.393.563-2.224.563zm32.87-.179v-1.151l4.321-4.73a30.68 30.68 0 0 0 1.253-1.444c.328-.414.571-.801.728-1.164.162-.366.243-.75.243-1.15 0-.46-.111-.859-.332-1.196a2.164 2.164 0 0 0-.895-.779 2.892 2.892 0 0 0-1.279-.275c-.502 0-.941.104-1.316.313a2.153 2.153 0 0 0-.863.863c-.201.371-.301.805-.301 1.304h-1.508c0-.767.177-1.44.53-2.02a3.69 3.69 0 0 1 1.445-1.355c.614-.324 1.302-.486 2.065-.486.767 0 1.446.162 2.039.486a3.663 3.663 0 0 1 1.393 1.31c.337.55.505 1.162.505 1.835 0 .481-.087.952-.262 1.412-.17.456-.469.966-.895 1.528-.422.558-1.008 1.24-1.758 2.046l-2.94 3.144v.103h6.085V319h-8.258zm15.245.179a4.914 4.914 0 0 1-1.611-.307c-.537-.196-1.027-.526-1.47-.991-.443-.468-.799-1.101-1.068-1.898-.268-.801-.402-1.807-.402-3.017 0-1.159.108-2.186.326-3.081.217-.899.532-1.656.946-2.269.413-.618.912-1.087 1.495-1.406.588-.32 1.251-.48 1.988-.48.733 0 1.385.147 1.956.441.576.29 1.044.695 1.406 1.215.363.52.597 1.118.704 1.796h-1.56a2.892 2.892 0 0 0-.844-1.464c-.417-.388-.971-.582-1.662-.582-1.014 0-1.813.441-2.397 1.324-.579.882-.871 2.12-.875 3.713h.102a3.847 3.847 0 0 1 1.949-1.527 3.806 3.806 0 0 1 1.272-.211c.75 0 1.436.187 2.059.562.622.371 1.12.884 1.495 1.541.375.652.563 1.4.563 2.243 0 .81-.181 1.551-.543 2.225a4.151 4.151 0 0 1-1.528 1.598c-.652.392-1.419.584-2.301.575zm0-1.406c.537 0 1.018-.135 1.444-.403a2.884 2.884 0 0 0 1.017-1.08c.251-.452.377-.955.377-1.509 0-.541-.122-1.033-.365-1.476a2.767 2.767 0 0 0-.99-1.068 2.624 2.624 0 0 0-1.432-.396 2.66 2.66 0 0 0-1.132.243 2.91 2.91 0 0 0-.92.652c-.26.277-.464.594-.614.952a2.855 2.855 0 0 0-.223 1.119c0 .52.121 1.005.364 1.457.247.452.584.816 1.01 1.093.43.277.918.416 1.464.416zM214.764 319v-1.151l4.321-4.73c.507-.554.925-1.035 1.253-1.444.328-.414.571-.801.729-1.164.162-.366.243-.75.243-1.15 0-.46-.111-.859-.333-1.196a2.151 2.151 0 0 0-.895-.779 2.888 2.888 0 0 0-1.278-.275c-.503 0-.942.104-1.317.313-.37.205-.658.492-.863.863-.2.371-.3.805-.3 1.304h-1.509c0-.767.177-1.44.531-2.02a3.683 3.683 0 0 1 1.445-1.355c.613-.324 1.301-.486 2.064-.486.767 0 1.447.162 2.039.486a3.658 3.658 0 0 1 1.394 1.31c.336.55.505 1.162.505 1.835 0 .481-.088.952-.262 1.412-.171.456-.469.966-.895 1.528-.422.558-1.008 1.24-1.758 2.046l-2.94 3.144v.103h6.085V319h-8.259zm11.308 0 5.855-11.582v-.103h-6.75v-1.406h8.386v1.483L227.734 319h-1.662z"/><path fill="#FF3B30" d="M262.36 319v-1.151l4.321-4.73c.507-.554.925-1.035 1.253-1.444.328-.414.571-.801.729-1.164.161-.366.242-.75.242-1.15 0-.46-.11-.859-.332-1.196a2.157 2.157 0 0 0-.895-.779 2.888 2.888 0 0 0-1.278-.275c-.503 0-.942.104-1.317.313a2.159 2.159 0 0 0-.863.863c-.2.371-.3.805-.3 1.304h-1.509c0-.767.177-1.44.531-2.02a3.68 3.68 0 0 1 1.444-1.355c.614-.324 1.302-.486 2.065-.486.767 0 1.447.162 2.039.486a3.655 3.655 0 0 1 1.393 1.31c.337.55.505 1.162.505 1.835 0 .481-.087.952-.262 1.412-.17.456-.468.966-.895 1.528-.421.558-1.007 1.24-1.757 2.046l-2.941 3.144v.103h6.086V319h-8.259zm15.092.179c-.878 0-1.654-.156-2.327-.467-.669-.315-1.191-.748-1.566-1.297a3.255 3.255 0 0 1-.556-1.892 3.461 3.461 0 0 1 .326-1.534c.221-.473.524-.868.907-1.183a2.788 2.788 0 0 1 1.298-.607v-.077a2.527 2.527 0 0 1-1.496-1.055 3.192 3.192 0 0 1-.549-1.86 3.154 3.154 0 0 1 .505-1.783c.34-.524.809-.937 1.406-1.24.601-.303 1.285-.454 2.052-.454.758 0 1.436.151 2.032.454a3.56 3.56 0 0 1 1.407 1.24c.345.524.519 1.119.524 1.783a3.245 3.245 0 0 1-.569 1.86 2.522 2.522 0 0 1-1.477 1.055v.077c.473.085.899.288 1.279.607.379.315.681.71.907 1.183.226.468.341.98.345 1.534a3.307 3.307 0 0 1-.575 1.892c-.375.549-.897.982-1.566 1.297-.665.311-1.434.467-2.307.467zm0-1.406c.592 0 1.103-.096 1.534-.288.43-.192.762-.462.997-.812.234-.349.354-.758.358-1.227a2.347 2.347 0 0 0-.384-1.31 2.588 2.588 0 0 0-1.029-.895c-.43-.218-.922-.326-1.476-.326-.559 0-1.057.108-1.496.326a2.588 2.588 0 0 0-1.029.895 2.31 2.31 0 0 0-.365 1.31c-.004.469.109.878.339 1.227.235.35.569.62 1.004.812.434.192.95.288 1.547.288zm0-6.213c.468 0 .884-.094 1.246-.282a2.13 2.13 0 0 0 .863-.786c.209-.336.315-.731.32-1.182-.005-.444-.109-.829-.314-1.157a2.026 2.026 0 0 0-.85-.767c-.362-.184-.784-.275-1.265-.275-.49 0-.919.091-1.285.275-.367.179-.65.434-.85.767-.201.328-.299.713-.294 1.157-.005.451.096.846.3 1.182.209.337.497.599.863.786.366.188.788.282 1.266.282zM310.29 319v-1.151l4.321-4.73a30.68 30.68 0 0 0 1.253-1.444c.328-.414.571-.801.728-1.164.162-.366.243-.75.243-1.15 0-.46-.111-.859-.332-1.196a2.164 2.164 0 0 0-.895-.779 2.892 2.892 0 0 0-1.279-.275c-.502 0-.941.104-1.316.313a2.153 2.153 0 0 0-.863.863c-.201.371-.301.805-.301 1.304h-1.508c0-.767.177-1.44.53-2.02a3.69 3.69 0 0 1 1.445-1.355c.614-.324 1.302-.486 2.065-.486.767 0 1.446.162 2.039.486a3.663 3.663 0 0 1 1.393 1.31c.337.55.505 1.162.505 1.835 0 .481-.087.952-.262 1.412-.17.456-.469.966-.895 1.528-.422.558-1.008 1.24-1.758 2.046l-2.94 3.144v.103h6.085V319h-8.258zm15.066-13.27a4.691 4.691 0 0 1 1.611.307c.536.2 1.027.533 1.47.997.443.46.799 1.089 1.067 1.886.269.797.403 1.796.403 2.998 0 1.163-.111 2.196-.333 3.1-.217.899-.532 1.657-.946 2.275-.409.618-.907 1.087-1.495 1.407-.584.319-1.245.479-1.982.479-.733 0-1.387-.145-1.962-.435a3.846 3.846 0 0 1-1.406-1.221 4.236 4.236 0 0 1-.697-1.821h1.56c.14.601.419 1.097.837 1.489.422.388.978.582 1.668.582 1.01 0 1.807-.441 2.391-1.323.588-.883.882-2.129.882-3.74h-.102a4.024 4.024 0 0 1-.85.927 3.763 3.763 0 0 1-2.372.812 3.99 3.99 0 0 1-2.065-.556 4.22 4.22 0 0 1-1.495-1.541c-.371-.656-.556-1.406-.556-2.25 0-.801.179-1.534.537-2.199a4.155 4.155 0 0 1 1.521-1.598c.656-.396 1.427-.588 2.314-.575zm0 1.406c-.537 0-1.021.135-1.451.403a2.9 2.9 0 0 0-1.017 1.074c-.247.447-.37.944-.37 1.489 0 .546.119 1.042.358 1.49.243.443.573.796.99 1.061.422.26.902.39 1.439.39.404 0 .782-.079 1.131-.237.349-.162.654-.381.914-.658.264-.282.471-.599.62-.953a2.933 2.933 0 0 0-.147-2.557 2.94 2.94 0 0 0-1.01-1.086 2.614 2.614 0 0 0-1.457-.416z"/><path fill="#0A0A0A" d="M26.423 367.179c-.844 0-1.596-.145-2.256-.435-.657-.289-1.179-.692-1.567-1.208a3.249 3.249 0 0 1-.626-1.809h1.61c.035.422.18.786.436 1.093a2.5 2.5 0 0 0 1.003.703c.413.167.872.25 1.374.25.563 0 1.062-.098 1.496-.294a2.458 2.458 0 0 0 1.023-.818c.247-.35.37-.755.37-1.215a2.28 2.28 0 0 0-.357-1.272c-.239-.371-.588-.661-1.049-.869-.46-.209-1.022-.314-1.687-.314h-1.049v-1.406h1.049c.52 0 .976-.094 1.368-.281a2.2 2.2 0 0 0 .927-.793c.225-.341.338-.741.338-1.201 0-.444-.098-.829-.294-1.157a2.01 2.01 0 0 0-.83-.767c-.354-.184-.772-.275-1.254-.275-.451 0-.877.083-1.278.249a2.39 2.39 0 0 0-.972.71 1.844 1.844 0 0 0-.409 1.112h-1.534a3.128 3.128 0 0 1 .62-1.803c.388-.52.895-.924 1.522-1.214a4.912 4.912 0 0 1 2.077-.435c.81 0 1.504.164 2.084.492a3.46 3.46 0 0 1 1.336 1.285c.31.533.466 1.108.466 1.726 0 .737-.194 1.366-.581 1.886-.384.519-.906.88-1.566 1.08v.102c.826.136 1.472.488 1.936 1.055.465.562.697 1.259.697 2.09 0 .712-.194 1.351-.581 1.918-.384.562-.908 1.005-1.573 1.329-.665.324-1.421.486-2.27.486zm11.308 0c-.964 0-1.784-.262-2.462-.786-.677-.529-1.195-1.294-1.553-2.295-.358-1.006-.537-2.22-.537-3.643 0-1.415.18-2.623.537-3.625.362-1.005.882-1.772 1.56-2.301.682-.533 1.5-.799 2.454-.799.955 0 1.771.266 2.449.799.681.529 1.201 1.296 1.56 2.301.361 1.002.543 2.21.543 3.625 0 1.423-.18 2.637-.537 3.643-.358 1.001-.876 1.766-1.554 2.295-.677.524-1.498.786-2.46.786zm0-1.406c.954 0 1.695-.461 2.224-1.381.528-.92.793-2.233.793-3.937 0-1.134-.122-2.099-.365-2.896-.239-.797-.584-1.404-1.035-1.822a2.288 2.288 0 0 0-1.617-.626c-.947 0-1.686.466-2.219 1.4-.532.929-.799 2.243-.799 3.944 0 1.133.12 2.096.358 2.889.239.792.582 1.395 1.03 1.809.451.413.995.62 1.63.62zm38.133 1.406c-.843 0-1.596-.145-2.256-.435-.656-.289-1.178-.692-1.566-1.208a3.249 3.249 0 0 1-.627-1.809h1.611c.034.422.18.786.435 1.093.256.303.59.537 1.004.703.413.167.87.25 1.374.25.562 0 1.06-.098 1.496-.294a2.458 2.458 0 0 0 1.022-.818c.247-.35.371-.755.371-1.215 0-.482-.12-.906-.358-1.272-.239-.371-.588-.661-1.048-.869-.46-.209-1.023-.314-1.688-.314h-1.048v-1.406h1.048c.52 0 .976-.094 1.368-.281a2.2 2.2 0 0 0 .927-.793c.226-.341.339-.741.339-1.201 0-.444-.098-.829-.294-1.157a2.01 2.01 0 0 0-.831-.767c-.354-.184-.772-.275-1.253-.275a3.3 3.3 0 0 0-1.278.249c-.397.162-.72.399-.972.71a1.844 1.844 0 0 0-.41 1.112h-1.533a3.114 3.114 0 0 1 .62-1.803c.388-.52.895-.924 1.521-1.214a4.913 4.913 0 0 1 2.078-.435c.81 0 1.504.164 2.083.492a3.46 3.46 0 0 1 1.336 1.285c.311.533.467 1.108.467 1.726 0 .737-.194 1.366-.582 1.886-.383.519-.905.88-1.566 1.08v.102c.827.136 1.472.488 1.937 1.055.464.562.697 1.259.697 2.09 0 .712-.194 1.351-.582 1.918-.384.562-.908 1.005-1.573 1.329-.664.324-1.42.486-2.269.486zm11.64-13.27V367H85.92v-11.429h-.077l-3.196 2.122v-1.611l3.273-2.173h1.585z"/><rect width="352" height="391" x=".5" y=".5" stroke="#D7D3D3" rx="15.5"/></svg>