<svg xmlns="http://www.w3.org/2000/svg" width="40" height="41" fill="none"><rect width="40" height="40" y=".608" fill="#3A91D0" rx="20"/><g clip-path="url(#a)"><mask id="b" width="20" height="18" x="10" y="12" maskUnits="userSpaceOnUse" style="mask-type:luminance"><path fill="#fff" d="M30 12.108H10v17h20v-17z"/></mask><g mask="url(#b)"><path fill="#FEFEFE" d="M27.93 16.546c.78-.586 1.484-1.29 2.03-2.11a7.687 7.687 0 0 1-2.343.626 4.007 4.007 0 0 0 1.797-2.266c-.781.469-1.68.82-2.578 1.016a4.102 4.102 0 0 0-3.008-1.29 4.101 4.101 0 0 0-4.101 4.102c0 .313.039.625.117.938a11.9 11.9 0 0 1-8.477-4.297c-.351.586-.547 1.289-.547 2.07 0 1.406.703 2.656 1.836 3.398-.664-.039-1.328-.195-1.875-.507v.039a4.107 4.107 0 0 0 3.281 4.023c-.312.078-.703.156-1.054.156-.274 0-.508-.039-.781-.078.507 1.64 2.03 2.813 3.828 2.852a8.247 8.247 0 0 1-5.078 1.758c-.352 0-.665-.04-.977-.078 1.797 1.171 3.945 1.835 6.29 1.835 7.538 0 11.64-6.21 11.64-11.64v-.547z"/></g></g><defs><clipPath id="a"><path fill="#fff" d="M10 12.108h20v17H10z"/></clipPath></defs></svg>