<svg xmlns="http://www.w3.org/2000/svg" width="40" height="41" fill="none"><rect width="40" height="40" y=".608" fill="#334E94" rx="20"/><g clip-path="url(#a)"><mask id="b" width="20" height="21" x="10" y="10" maskUnits="userSpaceOnUse" style="mask-type:luminance"><path fill="#fff" d="M29.474 10.608H10.526v20h18.948v-20z"/></mask><g mask="url(#b)"><path fill="#FEFEFE" d="M27.632 11.398H11.8c-.699 0-1.275.617-1.275 1.357v15.748c0 .74.576 1.316 1.275 1.316h15.83c.7 0 1.316-.576 1.316-1.316V12.755c0-.74-.616-1.357-1.315-1.357zm-11.555 15.79h-2.714v-8.759h2.714v8.758zm-1.357-9.992c-.904 0-1.603-.7-1.603-1.563s.699-1.603 1.603-1.603c.864 0 1.563.74 1.563 1.603 0 .864-.7 1.563-1.563 1.563zm11.596 9.991H23.56v-4.276c0-.987 0-2.303-1.398-2.303-1.44 0-1.645 1.11-1.645 2.262v4.317h-2.714V18.43h2.59v1.193h.042c.37-.7 1.275-1.44 2.59-1.44 2.755 0 3.29 1.85 3.29 4.195v4.81z"/></g></g><defs><clipPath id="a"><path fill="#fff" d="M10.526 10.608h18.947v20H10.526z"/></clipPath></defs></svg>